:version 1.10
:name ASF
:units
  mass 1
  length 1
  angle deg
:documentation
  ASF file generated by Kaydara
:root
  axis xyz
  order  tx ty tz rx ry rz
  position 0 0 0
  orientation 0 0 0
:bonedata
  begin
    id 1
    name RightUpLegDummy
    direction -0.718183 -0.695806 0.00816078
    length 4.904
    axis 0 0 0 xyz
  end
  begin
    id 2
    name RightUpLeg
    direction -0.0736652 -0.994202 0.0783343
    length 17.4976
    axis -2.72909 -3.00389 -4.00133 xyz
    dof rx ry rz
  end
  begin
    id 3
    name RightLeg
    direction -0.0389037 -0.994596 -0.0962598
    length 16.5821
    axis 3.95836 -18.5909 -4.46993 xyz
    dof rx ry rz
  end
  begin
    id 4
    name RightFoot
    direction -0.311643 -0.412678 0.855906
    length 3.77069
    axis -1.99483 -18.8351 -3.27644 xyz
    dof rx ry rz
  end
  begin
    id 5
    name RightToes
    direction -0.317852 0.0389852 0.947339
    length 3.85082
    axis -2.00228 -18.1713 -3.25211 xyz
    dof rx ry rz
  end
  begin
    id 6
    name SpineDummy
    direction 8.3039e-015 1 4.44677e-016
    length 4.6813
    axis 0 0 0 xyz
  end
  begin
    id 7
    name Spine
    direction -0.000262373 0.999988 0.00493267
    length 10.1015
    axis -0.00246081 0.00062579 0.0150362 xyz
    dof rx ry rz
  end
  begin
    id 8
    name Spine1
    direction 0 0 0
    length 0
    axis -0.00349562 0.000650293 0.0196666 xyz
    dof rx ry rz
  end
  begin
    id 9
    name HEadDummy
    direction -0.000343232 0.999999 0.00123745
    length 3.43865
    axis -0.00349562 0.000650293 0.0196666 xyz
  end
  begin
    id 10
    name HEad
    direction -0.0461221 0.980933 0.188796
    length 5.12695
    axis -0.00351404 -7.04812 0.0199272 xyz
    dof rx ry rz
  end
  begin
    id 11
    name LeftShoulder1Dummy
    direction 0.998904 -0.0399089 -0.0244534
    length 3.5433
    axis -0.00349562 0.000650293 0.0196666 xyz
  end
  begin
    id 12
    name LeftShoulder1
    direction 0.99951 1.64443e-005 0.0312999
    length 4.05031
    axis -0.00349562 0.000650293 0.0196666 xyz
    dof rx ry rz
  end
  begin
    id 13
    name LeftArm
    direction 0.984791 0.0515299 0.165927
    length 12.9126
    axis -64.823 -10.7743 5.20463 xyz
    dof rx ry rz
  end
  begin
    id 14
    name LeftForeArm
    direction 0.984968 0.0534808 0.16425
    length 10.8596
    axis -30.0462 -7.70601 1.87451 xyz
    dof rx ry rz
  end
  begin
    id 15
    name LeftHand
    direction 0.975871 0.0289682 0.216418
    length 6.62295
    axis -20.1348 -6.98077 1.86072 xyz
    dof rx ry rz
  end
  begin
    id 16
    name RightShoulderDummy
    direction -0.998877 -0.0405946 -0.0244307
    length 3.5433
    axis -0.00349562 0.000650293 0.0196666 xyz
  end
  begin
    id 17
    name RightShoulder
    direction -0.998933 -0.0249743 -0.0388558
    length 4.05031
    axis -0.0205316 -4.02113 1.41395 xyz
    dof rx ry rz
  end
  begin
    id 18
    name RightArm
    direction -0.997559 0.068664 0.0127103
    length 12.9638
    axis -67.3882 1.84188 -6.15987 xyz
    dof rx ry rz
  end
  begin
    id 19
    name RightForeArm
    direction -0.991508 0.0912848 0.0926241
    length 10.8312
    axis -22.1975 3.41087 -4.28711 xyz
    dof rx ry rz
  end
  begin
    id 20
    name RightHand
    direction -0.989262 0.0600788 0.133232
    length 6.57864
    axis -12.2911 2.17515 -4.39675 xyz
    dof rx ry rz
  end
  begin
    id 21
    name LeftUpLegDummy
    direction 0.718183 -0.695806 0.00816078
    length 4.904
    axis 0 0 0 xyz
  end
  begin
    id 22
    name LeftUpLeg
    direction 0.0831398 -0.99469 0.0606531
    length 17.4976
    axis -1.71016 2.29552 4.63832 xyz
    dof rx ry rz
  end
  begin
    id 23
    name LeftLeg
    direction 0.0498442 -0.991778 -0.117862
    length 16.5821
    axis 5.13757 15.5727 5.13348 xyz
    dof rx ry rz
  end
  begin
    id 24
    name LeftFoot
    direction 0.269026 -0.433896 0.85986
    length 3.77069
    axis -0.576502 15.6961 4.10267 xyz
    dof rx ry rz
  end
  begin
    id 25
    name LeftToes
    direction 0.277311 0.0251143 0.960452
    length 3.85048
    axis -0.576502 15.6961 4.10267 xyz
    dof rx ry rz
  end
:hierarchy
  begin
    root RightUpLegDummy SpineDummy LeftUpLegDummy
    RightUpLegDummy RightUpLeg
    RightUpLeg RightLeg
    RightLeg RightFoot
    RightFoot RightToes
    SpineDummy Spine
    Spine Spine1
    Spine1 HEadDummy LeftShoulder1Dummy RightShoulderDummy
    HEadDummy HEad
    LeftShoulder1Dummy LeftShoulder1
    LeftShoulder1 LeftArm
    LeftArm LeftForeArm
    LeftForeArm LeftHand
    RightShoulderDummy RightShoulder
    RightShoulder RightArm
    RightArm RightForeArm
    RightForeArm RightHand
    LeftUpLegDummy LeftUpLeg
    LeftUpLeg LeftLeg
    LeftLeg LeftFoot
    LeftFoot LeftToes
  end

:SAMPLES-PER-SECOND 30
:FULLY-SPECIFIED
:DEGREES
111
root  -1.16946 38.0226 52.9722 171.177 10.4783 177.684
RightUpLeg  3.39917 -4.85562 -4.44861
RightLeg  45.6841 10.2984 -7.26937
RightFoot  -13.5417 0.0965644 9.88332
RightToes  3.97569e-016 -3.18055e-015 -2.98177e-016
Spine  1.74842 2.10106 4.38663
Spine1  11.8071 4.04281 -6.02651
HEad  -2.22932 2.3835 -2.38891
LeftShoulder1  -3.88251e-019 9.70628e-020 -3.87848e-018
LeftArm  -22.054 63.2789 -64.8654
LeftForeArm  4.59387 -9.56655 -3.82828
LeftHand  -0.307672 0.504522 8.01186
RightShoulder  7.01787 9.97554 34.1414
RightArm  20.2856 -15.4218 40.1775
RightForeArm  -29.476 49.4434 -29.857
RightHand  -1.26173 2.73157 -17.7477
LeftUpLeg  -18.9766 2.6454 -6.45036
LeftLeg  17.6556 -1.35232 5.40379
LeftFoot  9.25773 -1.27782 6.61561
LeftToes  4.86531e-011 4.41684e-011 -2.86034e-011
112
root  -1.35309 37.8791 52.0378 170.199 9.718 176.452
RightUpLeg  -1.96571 -5.94343 -6.4157
RightLeg  55.5592 9.40323 -11.6446
RightFoot  -5.09611 -0.512313 7.41502
RightToes  3.97569e-016 -3.18055e-015 -2.98177e-016
Spine  3.3881 1.83355 2.62293
Spine1  11.6007 3.57839 -5.71846
HEad  -3.24777 2.18517 -2.98049
LeftShoulder1  -3.88251e-019 9.70628e-020 -3.87848e-018
LeftArm  -21.3141 58.1972 -66.1943
LeftForeArm  3.11919 -12.2974 -4.16273
LeftHand  -0.371169 0.2294 9.12561
RightShoulder  6.87026 9.89503 33.5428
RightArm  20.025 -14.1233 41.8205
RightForeArm  -31.3135 51.698 -32.4582
RightHand  -1.28193 3.33495 -16.8197
LeftUpLeg  -18.62 2.53242 -8.41102
LeftLeg  21.5296 -1.76662 6.16356
LeftFoot  5.59113 -1.24583 7.63921
LeftToes  4.86531e-011 4.41684e-011 -2.86034e-011
113
root  -1.46382 37.8632 51.2682 169.413 9.06866 175.875
RightUpLeg  -6.63657 -6.53457 -6.56845
RightLeg  61.2063 8.36547 -16.879
RightFoot  -3.26728 -0.287182 3.11704
RightToes  3.97569e-016 -3.18055e-015 -2.98177e-016
Spine  4.79448 1.72012 1.78272
Spine1  11.8528 3.3546 -6.03184
HEad  -3.89918 2.08677 -3.20225
LeftShoulder1  -3.88251e-019 9.70628e-020 -3.87848e-018
LeftArm  -19.5339 51.7195 -66.9604
LeftForeArm  1.97441 -15.1723 -4.4102
LeftHand  -0.454425 -0.527015 9.66679
RightShoulder  6.768 9.85316 33.0925
RightArm  19.2981 -12.5551 43.7292
RightForeArm  -32.1273 52.3595 -33.2564
RightHand  -1.27188 3.68779 -16.0638
LeftUpLeg  -17.3904 3.06248 -9.50618
LeftLeg  23.2533 -2.40583 6.29302
LeftFoot  3.21516 -1.07706 7.56658
LeftToes  4.86531e-011 4.41684e-011 -2.86034e-011
114
root  -1.52272 38.1116 50.5189 169.201 8.5533 176.517
RightUpLeg  -9.91837 -6.91339 -4.75766
RightLeg  61.8456 7.15933 -20.1807
RightFoot  -5.71919 0.0127902 0.0566313
RightToes  3.97569e-016 -3.18055e-015 -2.98177e-016
Spine  5.4347 1.584 2.58491
Spine1  11.8066 3.25011 -6.22515
HEad  -3.40648 2.05487 -3.1937
LeftShoulder1  -3.88251e-019 9.70628e-020 -3.87848e-018
LeftArm  -16.4215 44.8725 -67.8794
LeftForeArm  0.116465 -17.9351 -4.03371
LeftHand  -0.603969 -1.76364 10.5234
RightShoulder  6.69144 9.81707 32.7633
RightArm  18.6855 -11.171 45.3263
RightForeArm  -31.9513 51.8445 -32.5811
RightHand  -1.25178 3.73404 -15.7382
LeftUpLeg  -15.5465 3.50617 -9.12259
LeftLeg  22.8479 -3.16544 5.84252
LeftFoot  2.26044 -0.968175 7.22246
LeftToes  4.86531e-011 4.41684e-011 -2.86034e-011
115
root  -1.52689 38.42 49.8073 169.559 7.77289 177.65
RightUpLeg  -12.1574 -7.2688 -2.46853
RightLeg  58.7215 6.15595 -19.5521
RightFoot  -7.25516 0.00667112 0.216717
RightToes  3.97569e-016 -3.18055e-015 -2.98177e-016
Spine  5.78288 1.4005 3.11333
Spine1  11.0207 2.82305 -5.32397
HEad  -2.04847 2.10281 -3.17173
LeftShoulder1  -3.88251e-019 9.70628e-020 -3.87848e-018
LeftArm  -11.3775 38.7929 -69.2271
LeftForeArm  -4.68026 -21.2927 -2.07211
LeftHand  -0.788946 -3.22489 11.3442
RightShoulder  6.55754 9.72494 32.2461
RightArm  18.4117 -10.1868 46.4511
RightForeArm  -31.3689 50.8122 -31.3218
RightHand  -1.21281 3.59032 -15.4918
LeftUpLeg  -14.1032 3.07461 -8.19088
LeftLeg  22.0183 -3.59021 5.46621
LeftFoot  1.39693 -0.894104 7.05704
LeftToes  4.86531e-011 4.41684e-011 -2.86034e-011
116
root  -1.4877 38.649 49.1727 170.099 6.56487 178.573
RightUpLeg  -13.38 -7.80234 -0.795338
RightLeg  52.5613 5.31263 -16.5206
RightFoot  -7.27348 -0.0824234 1.94316
RightToes  3.97569e-016 -3.18055e-015 -2.98177e-016
Spine  6.21232 1.15974 2.34428
Spine1  9.96146 1.9808 -3.23889
HEad  -1.0679 2.33062 -3.18165
LeftShoulder1  -3.88251e-019 9.70628e-020 -3.87848e-018
LeftArm  -4.92677 33.6829 -70.5351
LeftForeArm  -12.8067 -25.4619 1.97895
LeftHand  -0.907409 -4.49654 11.318
RightShoulder  6.36951 9.59062 31.5197
RightArm  18.2703 -9.251 47.3397
RightForeArm  -29.9312 49.5968 -29.9869
RightHand  -1.19701 3.58301 -15.3068
LeftUpLeg  -13.1699 1.98074 -7.51839
LeftLeg  21.4142 -3.71358 5.28677
LeftFoot  0.649622 -0.843395 7.00765
LeftToes  4.86531e-011 4.41684e-011 -2.86034e-011
117
root  -1.4334 38.8888 48.6 170.559 5.33672 179.277
RightUpLeg  -13.2306 -8.45046 0.341054
RightLeg  42.8798 4.38824 -12.77
RightFoot  -8.06099 -0.113983 2.97891
RightToes  3.97569e-016 -3.18055e-015 -2.98177e-016
Spine  6.40529 0.843124 1.44824
Spine1  9.5377 1.13008 -1.10531
HEad  -1.08738 2.68808 -3.06001
LeftShoulder1  -3.88251e-019 9.70628e-020 -3.87848e-018
LeftArm  -1.58609 28.9147 -71.0188
LeftForeArm  -18.12 -29.7172 5.66464
LeftHand  -0.954624 -5.40584 10.8873
RightShoulder  6.23332 9.5062 30.9568
RightArm  18.0067 -8.01896 48.1991
RightForeArm  -26.684 47.9922 -28.4474
RightHand  -1.26642 3.88406 -15.6679
LeftUpLeg  -12.0214 1.07164 -7.00505
LeftLeg  20.1776 -3.95887 4.93471
LeftFoot  0.641796 -0.84616 7.03409
LeftToes  4.86531e-011 4.41684e-011 -2.86034e-011
118
root  -1.36726 39.1166 48.0642 170.897 4.36084 179.868
RightUpLeg  -11.7539 -9.01821 1.14632
RightLeg  30.693 4.89263 -8.22125
RightFoot  -8.2911 -0.114148 3.13103
RightToes  3.97569e-016 -3.18055e-015 -2.98177e-016
Spine  6.18196 0.512853 1.41411
Spine1  9.95977 0.582105 0.041344
HEad  -1.51359 2.8434 -2.6825
LeftShoulder1  -3.88251e-019 9.70628e-020 -3.87848e-018
LeftArm  -2.3334 23.9938 -70.6492
LeftForeArm  -17.2473 -33.5271 6.63404
LeftHand  -1.10455 -6.47444 11.4052
RightShoulder  6.20188 9.52021 30.7529
RightArm  17.4377 -6.85297 48.933
RightForeArm  -22.2907 45.8052 -26.5383
RightHand  -1.41493 4.32116 -16.7125
LeftUpLeg  -10.8318 0.641394 -6.47691
LeftLeg  18.9403 -4.46507 4.49316
LeftFoot  0.55425 -0.841903 7.04221
LeftToes  4.86531e-011 4.41684e-011 -2.86034e-011
